HIERARCHY
ROOT Hips
{
	OFFSET -14.64140 90.27770 -84.91600
	CHANNELS 6 Xposition Yposition Zposition Zrotation Xrotation Yrotation
	JOINT Spine
	{
		OFFSET 0.00000 13.20850 -1.60436
		CHANNELS 3 Zrotation Xrotation Yrotation
		JOINT Spine1
		{
			OFFSET 0.00000 8.61716 0.00000
			CHANNELS 3 Zrotation Xrotation Yrotation
			JOINT Spine2
			{
				OFFSET 0.00000 8.61717 0.00000
				CHANNELS 3 Zrotation Xrotation Yrotation
				JOINT Spine3
				{
					OFFSET 0.00000 8.61717 0.00000
					CHANNELS 3 Zrotation Xrotation Yrotation
					JOINT Neck
					{
						OFFSET 0.00000 11.07920 1.10792
						CHANNELS 3 Zrotation Xrotation Yrotation
						JOINT Neck1
						{
							OFFSET 0.00000 7.08032 0.00000
							CHANNELS 3 Zrotation Xrotation Yrotation
							JOINT Head
							{
								OFFSET 0.00000 7.08031 0.00000
								CHANNELS 3 Zrotation Xrotation Yrotation
								End site
								{
									OFFSET 0.00000 0.00000 0.00000
								}
							}
						}
					}
					JOINT RightShoulder
					{
						OFFSET -0.01000 7.91373 5.19711
						CHANNELS 3 Zrotation Xrotation Yrotation
						JOINT RightArm
						{
							OFFSET -18.41580 0.00000 0.00000
							CHANNELS 3 Zrotation Xrotation Yrotation
							JOINT RightForeArm
							{
								OFFSET -29.11090 0.00000 0.00000
								CHANNELS 3 Zrotation Xrotation Yrotation
								JOINT RightHand
								{
									OFFSET -24.65040 0.00000 0.00000
									CHANNELS 3 Zrotation Xrotation Yrotation
									JOINT RightHandThumb1
									{
										OFFSET -5.35114 -0.85590 3.97906
										CHANNELS 3 Zrotation Xrotation Yrotation
										JOINT RightHandThumb2
										{
											OFFSET -4.52789 0.00000 0.00000
											CHANNELS 3 Zrotation Xrotation Yrotation
											JOINT RightHandThumb3
											{
												OFFSET -2.46976 0.00000 0.00000
												CHANNELS 3 Zrotation Xrotation Yrotation
												End site
												{
													OFFSET 0.00000 0.00000 0.00000
												}
											}
										}
									}
									JOINT RightHandIndex1
									{
										OFFSET -14.26970 0.00000 2.88139
										CHANNELS 3 Zrotation Xrotation Yrotation
										JOINT RightHandIndex2
										{
											OFFSET -5.48836 0.00000 0.00000
											CHANNELS 3 Zrotation Xrotation Yrotation
											JOINT RightHandIndex3
											{
												OFFSET -3.01859 0.00000 0.00000
												CHANNELS 3 Zrotation Xrotation Yrotation
												End site
												{
													OFFSET 0.00000 0.00000 0.00000
												}
											}
										}
									}
									JOINT RightHandMiddle1
									{
										OFFSET -14.26970 0.00000 -0.09147
										CHANNELS 3 Zrotation Xrotation Yrotation
										JOINT RightHandMiddle2
										{
											OFFSET -6.17441 0.00000 0.00000
											CHANNELS 3 Zrotation Xrotation Yrotation
											JOINT RightHandMiddle3
											{
												OFFSET -3.56743 0.00000 0.00000
												CHANNELS 3 Zrotation Xrotation Yrotation
												End site
												{
													OFFSET 0.00000 0.00000 0.00000
												}
											}
										}
									}
									JOINT RightHandRing1
									{
										OFFSET -12.69180 0.00000 -3.06433
										CHANNELS 3 Zrotation Xrotation Yrotation
										JOINT RightHandRing2
										{
											OFFSET -5.62556 0.00000 0.00000
											CHANNELS 3 Zrotation Xrotation Yrotation
											JOINT RightHandRing3
											{
												OFFSET -3.56744 0.00000 0.00000
												CHANNELS 3 Zrotation Xrotation Yrotation
												End site
												{
													OFFSET 0.00000 0.00000 0.00000
												}
											}
										}
									}
									JOINT RightHandPinky1
									{
										OFFSET -11.11390 0.00000 -6.03719
										CHANNELS 3 Zrotation Xrotation Yrotation
										JOINT RightHandPinky2
										{
											OFFSET -4.52789 0.00000 0.00000
											CHANNELS 3 Zrotation Xrotation Yrotation
											JOINT RightHandPinky3
											{
												OFFSET -2.46976 0.00000 0.00000
												CHANNELS 3 Zrotation Xrotation Yrotation
												End site
												{
													OFFSET 0.00000 0.00000 0.00000
												}
											}
										}
									}
								}
							}
						}
					}
					JOINT LeftShoulder
					{
						OFFSET 0.01000 7.91373 5.19711
						CHANNELS 3 Zrotation Xrotation Yrotation
						JOINT LeftArm
						{
							OFFSET 18.41580 0.00000 0.00000
							CHANNELS 3 Zrotation Xrotation Yrotation
							JOINT LeftForeArm
							{
								OFFSET 29.11090 0.00000 0.00000
								CHANNELS 3 Zrotation Xrotation Yrotation
								JOINT LeftHand
								{
									OFFSET 24.65040 0.00000 0.00000
									CHANNELS 3 Zrotation Xrotation Yrotation
									JOINT LeftHandThumb1
									{
										OFFSET 5.35114 -0.85590 3.97906
										CHANNELS 3 Zrotation Xrotation Yrotation
										JOINT LeftHandThumb2
										{
											OFFSET 4.52789 0.00000 0.00000
											CHANNELS 3 Zrotation Xrotation Yrotation
											JOINT LeftHandThumb3
											{
												OFFSET 2.46977 0.00000 0.00000
												CHANNELS 3 Zrotation Xrotation Yrotation
												End site
												{
													OFFSET 0.00000 0.00000 0.00000
												}
											}
										}
									}
									JOINT LeftHandIndex1
									{
										OFFSET 14.26970 0.00000 2.88139
										CHANNELS 3 Zrotation Xrotation Yrotation
										JOINT LeftHandIndex2
										{
											OFFSET 5.48836 0.00000 0.00000
											CHANNELS 3 Zrotation Xrotation Yrotation
											JOINT LeftHandIndex3
											{
												OFFSET 3.01859 0.00000 0.00000
												CHANNELS 3 Zrotation Xrotation Yrotation
												End site
												{
													OFFSET 0.00000 0.00000 0.00000
												}
											}
										}
									}
									JOINT LeftHandMiddle1
									{
										OFFSET 14.26970 0.00000 -0.09147
										CHANNELS 3 Zrotation Xrotation Yrotation
										JOINT LeftHandMiddle2
										{
											OFFSET 6.17440 0.00000 0.00000
											CHANNELS 3 Zrotation Xrotation Yrotation
											JOINT LeftHandMiddle3
											{
												OFFSET 3.56744 0.00000 0.00000
												CHANNELS 3 Zrotation Xrotation Yrotation
												End site
												{
													OFFSET 0.00000 0.00000 0.00000
												}
											}
										}
									}
									JOINT LeftHandRing1
									{
										OFFSET 12.69180 0.00000 -3.06433
										CHANNELS 3 Zrotation Xrotation Yrotation
										JOINT LeftHandRing2
										{
											OFFSET 5.62556 0.00000 0.00000
											CHANNELS 3 Zrotation Xrotation Yrotation
											JOINT LeftHandRing3
											{
												OFFSET 3.56744 0.00000 0.00000
												CHANNELS 3 Zrotation Xrotation Yrotation
												End site
												{
													OFFSET 0.00000 0.00000 0.00000
												}
											}
										}
									}
									JOINT LeftHandPinky1
									{
										OFFSET 11.11390 0.00000 -6.03719
										CHANNELS 3 Zrotation Xrotation Yrotation
										JOINT LeftHandPinky2
										{
											OFFSET 4.52789 0.00000 0.00000
											CHANNELS 3 Zrotation Xrotation Yrotation
											JOINT LeftHandPinky3
											{
												OFFSET 2.46976 0.00000 0.00000
												CHANNELS 3 Zrotation Xrotation Yrotation
												End site
												{
													OFFSET 0.00000 0.00000 0.00000
												}
											}
										}
									}
								}
							}
						}
					}
					JOINT pCube4
					{
						OFFSET 0.00000 10.91090 1.10792
						CHANNELS 3 Zrotation Xrotation Yrotation
						End site
						{
							OFFSET 0.00000 0.00000 0.00000
						}
					}
				}
			}
		}
	}
	JOINT RightUpLeg
	{
		OFFSET -9.98441 0.00000 0.00000
		CHANNELS 3 Zrotation Xrotation Yrotation
		JOINT RightLeg
		{
			OFFSET 0.00000 -42.11790 0.00000
			CHANNELS 3 Zrotation Xrotation Yrotation
			JOINT RightFoot
			{
				OFFSET 0.00000 -45.00020 -0.00001
				CHANNELS 3 Zrotation Xrotation Yrotation
				JOINT RightForeFoot
				{
					OFFSET 0.00000 -3.74820 0.00000
					CHANNELS 3 Zrotation Xrotation Yrotation
					JOINT RightToeBase
					{
						OFFSET 0.00000 0.06325 14.43120
						CHANNELS 3 Zrotation Xrotation Yrotation
						End site
						{
							OFFSET 0.00000 0.00000 0.00000
						}
					}
				}
			}
		}
	}
	JOINT LeftUpLeg
	{
		OFFSET 9.98441 0.00000 0.00000
		CHANNELS 3 Zrotation Xrotation Yrotation
		JOINT LeftLeg
		{
			OFFSET 0.00000 -42.11800 0.00000
			CHANNELS 3 Zrotation Xrotation Yrotation
			JOINT LeftFoot
			{
				OFFSET 0.00000 -45.00070 0.00000
				CHANNELS 3 Zrotation Xrotation Yrotation
				JOINT LeftForeFoot
				{
					OFFSET 0.00000 -3.74824 0.00000
					CHANNELS 3 Zrotation Xrotation Yrotation
					JOINT LeftToeBase
					{
						OFFSET 0.00000 0.06325 14.43110
						CHANNELS 3 Zrotation Xrotation Yrotation
						End site
						{
							OFFSET 0.00000 0.00000 0.00000
						}
					}
				}
			}
		}
	}
}
MOTION
Frames: 4
Frame Time: 0.050000
0.04256749005338296 0.038723344894716516 -0.03923220501273916 0.010156333765236905 -0.0027816486406906002 -0.02965676477684211 -1.5827535653110538 1.8548945614900352 -0.9512675760683795 -0.9897837589593972 3.9394699056194735 0.3732763045147218 -1.022437341438263 -1.283266483788128 -0.6397389986337465 0.7218464254366754 0.4426784662025188 -0.7834794323783326 -0.006804663796560674 11.677974848065135 -1.0981279157012893 0.11311495256124258 -1.0770322848469576 -4.350442422564659 0.6304705602590455 -16.58569481987555 -0.4087288125112302 -2.022850433450338 0.8930408028839836 -15.157025881834642 74.74226635521326 26.09008020285655 1.1857991388349622 11.683653001411141 2.251234825274169 47.10202578073047 21.4124707672053 0.016695874447156686 -4.92803371780004 4.499823380250191 -0.1228843128737791 -1.622850063685811 -0.005171208194268842 0.024406343244133072 -56.19914087541254 0.009698018432779685 0.02211743520756409 -56.21732557801184 -38.80927575176018 0.040085381614239725 -0.017743174454688922 0.024362155309514775 -0.030902832622301802 -0.02830791542361153 0.016665160319545867 0.021060220064624522 -0.021472797277337155 -36.66610408794916 0.017039180199404536 -0.016965777608925786 -0.0006099651089017152 -0.007655802937701384 -0.002629654917300956 0.0020587430474997837 -0.007496709886473063 -0.009032652557017717 -19.7553586538556 -0.018597907870642798 0.03696591877159895 0.028836369531282834 0.010126206638513637 -0.016357226955128465 -0.047377152644893984 0.001580191946611744 -0.030700418476196974 24.02566036812764 0.0019025174927443664 -0.04055973292133918 28.900017067528122 0.04650368374979947 -0.03495154125455991 28.828291108558894 0.0009826874646927124 0.04814149901215931 3.5835693397594346 1.0052514889512898 13.734820866676667 -69.96679950181439 34.69752808508564 -6.63229070941416 -4.10881260271389 -3.232802406139106 -95.51974270082762 -14.56117454250483 -4.715166794720652 2.9068655172941664 -0.4612538128049372 0.039092114537402425 -8.122759072784639 0.034195810558440634 -0.009132787688012043 44.53928906872082 -0.006421144172950325 -0.02801544433972031 44.55073160809423 12.441156344362177 0.017156184708774735 0.00331703785262778 -0.03703300502422662 -0.043163134315322794 -0.011233829394481856 -0.03643818333751004 0.004712271130787757 -0.04081327075994239 11.150807799433599 -0.016787385876104836 -0.020170969890791958 0.01989003374810162 0.04715524522912787 -0.0030440942776714212 0.04174775051379951 0.007497991253763806 -0.0056123775571666045 4.77310708971064 0.04237137282160409 0.00972799246406138 0.04613830303170296 -0.015333590265648648 0.0063027629606642556 -0.036747611787953625 0.007240232468806922 0.009463259818698192 -5.61574192065624 0.03224341948441512 -0.03622869918618394 -6.722335549338801 0.035992775620127405 -0.020751920453125114 -6.695190934764795 0.03474609460915508 -0.017395026587136878 -0.04216827612479157 -0.04593693337075429 0.035513644141265 8.079294848747619 3.458698569693722 -19.210375037753916 -0.04826353982628453 10.427350339868692 0.002778583998779758 -5.626754322892511 -15.695530022651614 3.1633285799888475 -0.0401700655471806 -0.0063598003320980605 0.0024244268396187408 -0.0026136048929741086 4.675932091624498 0.006850529253185908 12.504943708622434 -8.230191566628848 6.914882679328284 -0.02505726173416859 46.36345561175741 -0.005557582716074225 -4.328243461914445 -14.78661489147338 -3.8271707262360484 0.016780746125181528 0.018602564575249593 0.020964438355214665 -0.03430533071352884 -10.77957335554224 0.013810475178479678 
-0.00044809921304757153 0.04800139316045561 -0.0396609348841858 -0.045197016377285265 0.018114546195938643 0.02438829544046625 -1.4126724900439933 1.6554622412055273 -0.9856106309867918 -0.9605690714705815 3.906626630872385 0.3316504156680914 -1.048232213508505 -1.3493064318716579 -0.7323941344680639 0.7578898012992706 0.4605067420324728 -0.7454663547414805 0.14870115628428854 11.75165956041072 -1.3146304425790043 0.16565286916783606 -0.9164955814988553 -4.778418279543266 0.7383845250948969 -16.485709655053533 -0.36537053262215746 -2.28814502829931 0.9938872976631512 -15.221004876624711 75.02983790063196 25.967996839454592 0.7711834126264805 12.34524089036475 2.7117412293788377 46.841296257681954 21.778777688915863 0.053880839476448575 -4.96311988974405 4.56423264316849 -0.1612008219432378 -1.6062218581581644 -0.021569444886412978 -0.021410442943884125 -56.25983173733369 0.029801712460637016 -0.013936919117681329 -56.191691832442196 -38.72152506428742 -0.012140765357676716 0.039938035468174156 0.02614424341570876 -0.03695849391186716 -0.026512461881028147 0.005951910194861571 -0.04068785748363141 0.025156683814973525 -36.71459335972353 -0.005069263639291888 -0.013282602325803746 0.016142417894010705 0.04038330038763057 0.020465092674321204 0.025215262555614366 0.018744835573756616 -0.0209201424183288 -19.76533517581081 -0.04267986906550733 -0.03351059426876612 0.03954579805455768 -0.003929687689424165 0.022224675141360364 -0.04150321831111355 -0.007494321695898705 0.042927863584261795 24.018968381550522 0.02526288671642585 -0.020640193642270092 28.835310098559663 -0.0029577987612786757 0.020273992962530536 28.88983515117227 -0.011171284326807234 0.017049052167217284 3.6474792297204215 1.1101677035947852 13.765482278753531 -70.34816380558438 35.324506291864274 -5.564414485814667 -3.688576894784775 -4.033203755327027 -96.28187510360445 -14.429034558884478 -4.924823918081211 2.6028951277235746 -0.46059389939780127 0.06947371478567554 -8.102166293013488 -0.04497401221163845 0.001462030447613271 44.54439788323528 0.04909267808109911 -0.015974352370925166 44.601222559873975 12.506013292480485 0.02048006655722527 -0.0063932960779391895 0.03812033644403387 0.031456233028078665 -0.04250526958237696 0.03444857397077833 0.0282228121543562 0.0014037420547255797 11.120146036808139 -0.04217383242521502 -0.017809827828551988 -0.04284720033930839 0.006251523749855013 0.017656858752095984 0.027511392423815586 -0.01728979694414291 0.03904702389617025 4.790249997753166 -0.019054692808050066 -0.0265567919988304 0.022831458508124524 -0.014089763551807436 -0.009801323647629688 -0.018028355239702545 -0.011132409144021449 -0.04243622711283405 -5.649452589934538 -0.029353059835284644 -0.008708313646494487 -6.757431667904993 0.0495040271040178 0.04977364607952656 -6.7131384214707674 -0.02051613462199505 -0.043471327460872185 0.013577910585481434 0.01831853458514605 0.040514221205858916 8.070163388964845 3.4598565873223617 -19.20247662220734 0.00909014790343057 10.399902234567243 0.042304379016741514 -5.594483179160027 -15.679501943168205 3.1862291752479313 0.012724697575476436 -0.001454732550005606 -0.049935861411767646 -0.023435544379302738 4.693606745347621 -0.04060949176843449 12.477836777819086 -8.255906421362715 6.866690893563963 0.008967499265531271 46.37110284363682 -0.029178676015014303 -4.312245522420773 -14.792795138526595 -3.818457553813251 -0.026202695242730757 0.0034057552103705906 -0.011407672470121154 0.029388345304693454 -10.723095004173624 0.006074099403038485 
-0.001125643209743147 -0.01593374666034087 -0.04142083175558023 0.006833752545973539 0.02915240727344527 -0.016214438519208757 -1.318814858354379 1.4592264303963498 -0.9395961933432294 -0.950299621887064 3.8305563052642335 0.3736995859311105 -1.0193377238051822 -1.4104599326684928 -0.6817468741090069 0.6703485668631046 0.44728392196159705 -0.7417901199822085 0.25258403820478886 11.779432302339929 -1.3545289852267373 0.2182016520893475 -0.8395575595513688 -4.897215954894447 0.8026408564492045 -16.25422749952703 -0.4309828905701668 -2.3512114687410177 1.0731666361766325 -15.350731284420522 75.32402232329892 25.96969630342725 0.1974907651881907 12.981599141926628 3.3793072183144806 46.481696825146486 22.088977699033613 0.03193119218451902 -4.892876443338659 4.545249425337003 -0.10158547480272179 -1.5531704587838258 0.026954081763719905 -0.01676540764314839 -56.22327771075439 -0.013821146542893457 0.01927105835261263 -56.214804927027075 -38.79284992423987 0.03186612971680484 0.023024129130212494 0.04794812349583556 0.034964324060980004 0.016535456900859103 -0.04832348644872955 -0.039965927720449795 0.01275814973163868 -36.72971867580264 0.00763284247513084 0.04022951417798243 0.04417321345543196 -0.023464164128187002 0.04474578178934974 -0.016634846532043394 -3.610043236652289e-05 0.005002623782932688 -19.80470374189636 -5.9576707868297744e-05 0.007156285436334941 0.024913172514616267 0.006997972028945538 0.0004831758270633829 -0.04124195453265519 0.03101993622864834 0.031112793864007712 24.042707373348374 -0.027369510692339644 -0.027001724192796166 28.82233464931933 0.010410527364337115 0.04283607101802388 28.89174109677412 0.023172790042571452 0.017028323446789305 3.687638275057403 1.138355439281526 13.682971762988117 -70.68759352406711 35.85627282272462 -4.765740862995314 -3.680476291179416 -4.733366717566532 -96.79876980881284 -14.01025115866457 -4.9083780457432535 2.1697733903518905 -0.4516758587894728 0.04492067599245274 -8.139376345734373 -0.009867186475619748 -0.010405711182865584 44.53561860349995 0.04801230872602129 0.027484586048886196 44.60684146678627 12.488589855336896 0.014372401271668908 0.0306500413633251 0.030167367195882172 0.0015325946530878268 -0.0051566797446193115 -0.0048741038726173806 0.006503597576212709 -0.03771566999094601 11.105417816878765 -0.048760136630472475 0.041956427346059824 0.03072958336635703 0.0029892625150126535 0.01944717276019873 -0.003042400984559327 -0.03439459358031714 0.0217278226511167 4.792563219734525 -0.010517800943704338 0.036860756058739196 -0.006130919872414043 0.03745010859785449 -0.026271939802048366 0.002921789644502245 -0.009238728229811826 -0.034993692949409114 -5.611627925278907 0.024275514318725936 0.0360677137065674 -6.689271455350874 0.0018177688806864621 -0.014150570668463675 -6.729501475506423 0.025786421485418366 0.027791508752220917 -0.006223024997884723 0.013344272751629315 0.013943152098904656 8.01457248170049 3.4821297462805627 -19.230597113141673 -0.020623228221505138 10.390871101408763 -0.028555717327596517 -5.629207412606035 -15.697079535934769 3.184426587860211 0.044106629252240404 0.029705880077690924 0.001507407559151437 -0.024288303280645292 4.66871048250477 -0.020129004170928794 12.473942641871817 -8.257453778303928 6.868089942113125 0.027974840089850666 46.34219391188018 0.005645416208196175 -4.357659379362557 -14.734122585065128 -3.85471107295702 -0.004449257372209059 0.011151789533060185 -0.02227571719664585 -0.036928539776569236 -10.773078060236768 -0.02079850404990019 
0.031081930646561153 0.02587026092683376 0.03452692358373192 -0.010786260522987338 -0.006102064273674415 -0.0005931948493802565 -1.3407223279339033 1.2603807455882403 -0.9303715372700688 -0.9416039577240616 3.9022769029906126 0.34876884204872705 -1.0532310497229775 -1.5152794829320626 -0.7293539712773067 0.6290934455678472 0.4233537520179788 -0.7646313640605246 0.19454466351889887 11.968549208728097 -1.2858406297284837 0.22681776601799433 -0.6682743864852119 -4.618457427888694 0.8195512520375093 -15.998171706169268 -0.4363543972192828 -2.543630955685523 1.1181214870681535 -15.300751934434977 75.57838444647258 26.149083718408 -0.20248516313497944 13.573773592198588 3.6997120069944667 46.394265340337114 22.209064196369564 0.07396512857571896 -4.937454006745349 4.515429160564719 -0.12502083250828877 -1.610145765592233 -0.03633797529443787 -0.00282863272052568 -56.24722713307013 -0.04643159873486362 -0.027717061479649387 -56.214865101636796 -38.794046604450095 0.04679570066880939 -0.03474561790571742 0.010232700098830969 -0.046847434383684126 0.024862301699143004 0.0071399053428970035 0.018768486610800914 0.042029741601872325 -36.72138267073406 -0.034672161161197694 0.009300677669628917 0.02648027502575152 -0.0030722509899276038 0.0423993679554043 -0.0003468209039517024 0.01656938129755103 -0.036126341121461285 -19.769442718725788 -0.0128108089362166 0.0010117248067788047 -0.004536927000773809 0.04458356441554734 -0.002874513615432564 -0.011477584259092313 0.014692261827657198 -0.03850051660433566 24.0767284957091 -0.021315835897974363 -0.02490467894763286 28.87367810548968 -0.003592475910465427 -0.04533993621874403 28.90575939969154 -0.04160262469264421 -0.02073779721745739 3.8153710180016995 1.0820352831918345 13.726109189929566 -70.98794443257925 36.128291868483394 -4.484307719434846 -3.5806656123562353 -5.36859717533585 -97.76066614795958 -12.905574177430317 -4.586006552398505 1.268889663621468 -0.46649156432156486 0.08101144559020197 -8.1255092223358 0.0017447612840174498 -0.016456474808212135 44.546166604694896 -0.007471996415992329 -0.024471210789925486 44.6125462062288 12.42044640151818 -0.0011398237755493783 0.0006287345611245255 0.014066616288734783 -0.007793336538621913 0.01992541419841993 -0.028656239840296818 -0.023679029551905015 -0.002716478073920535 11.130283683984906 0.01117216539528835 -0.013498205839795044 0.012226340707605627 0.01590851787052769 -0.007608657168758243 0.04982877142962886 6.140567356155889e-05 -0.042035522611547055 4.759594210797461 0.01165635950452235 -0.027766263616526624 -0.011127317537184753 0.0002942723274199119 0.023978131041904365 -0.0374045678736065 0.03219479340598574 0.0012406874113849273 -5.647317260928853 0.0006801496147478447 -0.026813773122839932 -6.754444788848677 0.04232632914432312 -0.03818994285547529 -6.69012682489279 0.03571079565685914 -0.04444686475580038 -0.04394266359177282 -0.04392083120876479 0.02485702176155292 8.079541891737566 3.452451510536701 -19.217874831626936 0.01058338148943082 10.432470951252716 0.023561493787162602 -5.622527263732698 -15.69865375307977 3.217950497311093 0.014736862506326645 0.03174392852838039 -0.03145264493237989 0.014173713932277511 4.742776432449719 0.03140355215243938 12.422509982951581 -8.268269684525688 6.916331235122743 0.049914876685071184 46.35169306780117 0.004413703478969277 -4.293459560455021 -14.780151639077276 -3.8567589899678607 -0.03230250460031986 0.007385704017848183 0.0013675413867842237 -0.02503613071524586 -10.766704400669509 0.03148472938082897 
